<svg xmlns="http://www.w3.org/2000/svg" width="1500" height="1098" viewBox="0 0 1500 1098"><path fill="#B1DD28" d="M314.967 704.515l147.4 186.241L419.556 1097l42.811-206.244zM0 170.058v.001l36.102-9.743zM178.522 121.886v-.001.001zM970.979 1097h.001l-96.291-218.195zM1463.396 1097L1500 857.459v-2.356L1462.066 1097zM1500 680.498v-269.1l-43.076 9.9zM1050.32 0l-8.126.705zM1428.213 1097h.001l-18.333-113.805zM1065.979 0h-.562l.264.664zM1372.663 63.125v.001L1500 179.69V0h-119.855l-7.483 63.124zM725.298 454.193h-.001l-262.93 436.563.001.001v-.001zM632.675 36.233L693.846 0l-61.171 36.233z"/><path fill="#B1DD28" d="M462.369 890.757l196.698-52.627-196.699 52.626zM1368.68 727.422v-.001l.639-2.262-.64 2.261zM689.443 830.003l.001.001 185.245 48.801-185.246-48.802zM365.761 159.731l-187.239-37.846 187.239 37.846zM727.369 455.629l147.32 423.176-147.263-423.136zM434.89 127.746l-69.129 31.985.036-.229-.036.229z"/><path fill="#22604B" d="M214.534 0H23.516l155.006 121.885z"/><path fill="#2B724D" d="M365.761 159.731L321.161 0H214.534l-36.012 121.885z"/><path fill="#41884E" d="M725.297 454.193l.604-1.973-360.14-292.489-50.793 544.784-.001-.001v.001l147.4 186.241 262.93-436.563z"/><path fill="#29554B" d="M178.521 121.885L23.516 0H0v170.058l36.102-9.742z"/><path fill="#2C6C4D" d="M178.522 121.886v-.001h-.001L36.102 160.316 0 170.059v182.152l314.967 352.304z"/><path fill="#33774D" d="M178.522 121.886l136.445 582.628.001.001 50.793-544.784-187.239-37.846v.001z"/><path fill="#5B9B50" d="M632.674 36.233h.001L693.846 0H585.907l46.767 36.233z"/><path fill="#91BD52" d="M632.675 36.234L1042.194.705 1050.32 0H693.846l-61.171 36.233z"/><path fill="#61A551" d="M726.086 451.615l97.81-319.77v-.001l-191.221-95.61zM632.674 36.233h.001z"/><path fill="#1D5B4B" d="M0 780.478v177L87.151 1097h156.516l71.3-392.485z"/><path fill="#23604D" d="M0 352.211v428.267l314.967-75.963z"/><path fill="#17514A" d="M0 1097h87.151L0 957.478z"/><path fill="#27604C" d="M462.367 890.757h.001l-.001-.001L419.556 1097H532.49l-70.122-206.243z"/><path fill="#23644D" d="M331.541 1097h88.015l42.811-206.244z"/><path fill="#397A4F" d="M462.368 890.757h.001l-.001-.001zM532.49 1097h196.656L462.368 890.758z"/><path fill="#47864F" d="M689.444 830.004l-.001-.001-30.376 8.127-196.698 52.627h-.002.001v.001L729.146 1097h72.117l-111.82-266.996z"/><path fill="#91BD52" d="M1232.234 1031.185l136.445-303.762v-.001h.001l-345.594-66.73z"/><path fill="#78AE52" d="M1023.085 660.692v-.001zM1023.085 660.692L727.426 455.669l147.263 423.136 357.545 152.38-209.148-370.493z"/><path fill="#2F724E" d="M314.967 704.515L243.667 1097h87.874l130.826-206.244z"/><path fill="#74AD53" d="M1198.791 1097h114.856l-81.413-65.815z"/><path fill="#6BA94F" d="M726.08 454.735l-36.636 375.268h-.001l185.246 48.802-147.32-423.176z"/><path fill="#B4D357" d="M1500 1097V857.459L1463.396 1097z"/><path fill="#BBE159" d="M1066.482 2.681l306.18 60.443L1380.145 0h-314.166l-.298.664z"/><path fill="#77B053" d="M726.08 454.735l1.289.894.057.04 295.659 205.023v-.001L823.896 131.845l-97.81 319.77.208.924v.001z"/><path fill="#77B053" d="M725.297 454.193h.001l.996-1.653-.393-.32-.604 1.973z"/><path fill="#93C155" d="M1224.267 399.754L1064.915 2.372l1.567.309-.801-2.017-.264-.664h-2.796L823.896 131.845zM823.896 131.845v-.001.001z"/><path fill="#92C054" d="M1023.085 660.691v.001l201.181-260.937v-.001h.001L823.896 131.845z"/><path fill="#5C9B50" d="M689.444 830.003l36.636-375.268.214-2.195-.996 1.653-262.93 436.563 196.699-52.626 30.376-8.127zM726.294 452.539v.001-.001z"/><path fill="#669E51" d="M689.444 830.004h-.001L801.263 1097h48.387l25.039-218.195z"/><path fill="#699D4F" d="M874.689 878.805L970.98 1097h227.811l33.443-65.815z"/><path fill="#3B824E" d="M365.761 159.731l69.129-31.985 197.784-91.512L585.907 0H390.924l-25.127 159.502z"/><path fill="#347E4D" d="M365.797 159.502L390.924 0H321.161l44.6 159.731z"/><path fill="#93C155" d="M1368.679 727.42l.64-2.261 85.879-303.506-230.931-21.899zM1224.266 399.754v.001l.001-.001z"/><path fill="#B4D357" d="M1409.881 983.195L1428.214 1097h33.852L1500 855.103v-93.502l-131.32-34.179zM1368.679 727.423l.001-.001h-.001z"/><path fill="#AACF56" d="M1368.68 727.422v-.001.001l-.001.001-136.445 303.762 81.413 65.815h114.566l-18.332-113.805z"/><path fill="#BBDE57" d="M1455.268 421.41l1.054-3.728.602 3.616 43.076-9.9V179.69L1372.663 63.126z"/><path fill="#BBDE57" d="M1456.322 417.682l-1.054 3.728.058.256-.128-.013-85.879 303.506-.639 2.262 131.32 34.18v-81.103l-43.076-259.2z"/><path fill="#4D9650" d="M365.761 159.731l360.14 292.489.393.32v-.001l-.208-.924-93.411-415.381h-.001.001v-.001h-.001v.001L434.89 127.746l-69.129 31.985z"/><path fill="#74AD53" d="M632.675 36.234h-.001.001l191.221 95.61v.001L1062.621 0h-12.301l-8.126.705z"/><path fill="#4A854F" d="M849.65 1097h121.329l-96.29-218.195z"/><path fill="#B4D357" d="M1455.326 421.666l-.058-.256-82.605-358.284v-.001l-.001-.001-306.18-60.443-1.567-.309 159.352 397.382 230.931 21.899z"/><path fill="#74AD53" d="M1224.266 399.755l-201.181 260.937h.001l345.594 66.73-.001-.002-144.412-327.666z"/></svg>